<svg width="20" height="20" viewBox="0 0 20 20" fill="none" xmlns="http://www.w3.org/2000/svg">
<path fill-rule="evenodd" clip-rule="evenodd" d="M15.7094 5.37554C15.7806 5.30437 15.8372 5.21985 15.8758 5.12682C15.9144 5.03379 15.9343 4.93407 15.9343 4.83335C15.9344 4.73263 15.9146 4.63288 15.8761 4.5398C15.8377 4.44673 15.7812 4.36214 15.71 4.29088C15.6389 4.21961 15.5543 4.16307 15.4613 4.12446C15.3683 4.08586 15.2686 4.06596 15.1678 4.0659C15.0671 4.06584 14.9674 4.08562 14.8743 4.1241C14.7812 4.16259 14.6966 4.21903 14.6254 4.29021L10 8.91554L5.37603 4.29021C5.23211 4.14629 5.0369 4.06543 4.83336 4.06543C4.62983 4.06543 4.43462 4.14629 4.2907 4.29021C4.14677 4.43413 4.06592 4.62934 4.06592 4.83288C4.06592 5.03642 4.14677 5.23162 4.2907 5.37554L8.91603 9.99954L4.2907 14.6235C4.21943 14.6948 4.1629 14.7794 4.12434 14.8725C4.08577 14.9656 4.06592 15.0654 4.06592 15.1662C4.06592 15.267 4.08577 15.3668 4.12434 15.4599C4.1629 15.553 4.21943 15.6376 4.2907 15.7089C4.43462 15.8528 4.62982 15.9337 4.83336 15.9337C4.93415 15.9337 5.03394 15.9138 5.12705 15.8752C5.22016 15.8367 5.30477 15.7801 5.37603 15.7089L10 11.0835L14.6254 15.7089C14.7693 15.8526 14.9644 15.9333 15.1678 15.9332C15.3713 15.9331 15.5663 15.8521 15.71 15.7082C15.8538 15.5643 15.9345 15.3692 15.9343 15.1657C15.9342 14.9623 15.8533 14.7673 15.7094 14.6235L11.084 9.99954L15.7094 5.37554Z" fill="#F9F9F9"/>
</svg>
