<svg width="20" height="20" viewBox="0 0 20 20" fill="none" xmlns="http://www.w3.org/2000/svg">
<g clip-path="url(#clip0_0_268)">
<path opacity="0.92" fill-rule="evenodd" clip-rule="evenodd" d="M9.70693 0.48839C11.8189 0.477179 13.5181 1.29748 14.8045 2.9493C14.9664 3.21096 14.9013 3.38023 14.6092 3.45711C14.5324 3.45547 14.4608 3.43594 14.3944 3.39852C13.1091 1.67605 11.3904 0.92085 9.23819 1.13291C7.20215 1.48952 5.77639 2.61581 4.96089 4.51179C4.44089 5.90603 4.47995 7.28621 5.07807 8.65237C5.77549 10.3109 6.63485 11.8734 7.65617 13.3398C8.36035 14.3574 9.10252 15.3469 9.88271 16.3085C9.91541 16.3674 9.96099 16.3869 10.0194 16.3671C11.4673 14.6063 12.7628 12.7379 13.9061 10.7617C14.4899 9.73763 14.9325 8.65694 15.2342 7.51957C15.4939 7.28238 15.6827 7.32797 15.8006 7.65629C15.5004 8.79725 15.0642 9.88451 14.492 10.918C13.8035 12.1591 13.0417 13.3504 12.2069 14.4922C13.1908 14.6718 14.0761 15.0625 14.8631 15.664C15.6826 16.5583 15.6305 17.4047 14.7069 18.2031C13.8024 18.8259 12.7998 19.2036 11.6991 19.3359C9.94576 19.5958 8.22703 19.4526 6.5429 18.9062C5.88307 18.6757 5.31666 18.3046 4.8437 17.7929C4.348 17.0158 4.43261 16.3062 5.0976 15.664C5.88459 15.0625 6.76997 14.6718 7.75383 14.4922C6.67735 13.0239 5.73334 11.468 4.92182 9.82423C4.39324 8.75811 4.08726 7.63179 4.00387 6.44536C4.11672 3.97816 5.26252 2.18128 7.44133 1.05479C8.16765 0.729981 8.92284 0.541178 9.70693 0.48839ZM9.47256 7.44144C10.8293 7.31965 11.9491 7.76886 12.8319 8.78909C11.5999 10.1372 10.1286 10.4758 8.41788 9.8047C7.92129 9.55002 7.4916 9.21151 7.12883 8.78909C7.74371 8.0505 8.52495 7.60129 9.47256 7.44144ZM8.06632 15.0195C8.13941 15.0335 8.198 15.0726 8.2421 15.1367C8.73499 15.7989 9.2428 16.4499 9.76553 17.0898C9.92545 17.2013 10.0752 17.1882 10.2147 17.0507C10.7776 16.384 11.3245 15.7069 11.8553 15.0195C12.6768 15.1566 13.4451 15.4365 14.16 15.8593C14.4925 16.0742 14.7204 16.3672 14.8436 16.7382C14.8677 17.0176 14.7895 17.265 14.6092 17.4804C14.2193 17.8826 13.757 18.1756 13.2225 18.3593C10.9865 19.0834 8.75991 19.0574 6.5429 18.2812C5.98549 18.0715 5.53627 17.7265 5.19526 17.246C5.04784 16.9107 5.0869 16.5982 5.31245 16.3085C5.71502 15.8936 6.19025 15.5876 6.73821 15.3906C7.17895 15.2415 7.62164 15.1178 8.06632 15.0195Z" fill="white"/>
<path opacity="0.921" fill-rule="evenodd" clip-rule="evenodd" d="M9.51162 2.24609C11.6096 2.14516 13.0874 3.04359 13.9452 4.94137C14.545 6.76694 14.161 8.34895 12.7928 9.68742C11.4639 10.7553 9.99256 11.0027 8.37882 10.4296C6.6965 9.65738 5.81111 8.34227 5.7226 6.48432C5.90986 4.10337 7.17286 2.69062 9.51162 2.24609ZM9.51162 2.83202C11.2871 2.73314 12.5696 3.47532 13.3592 5.05856C13.7971 6.15956 13.732 7.22725 13.1639 8.26165C12.6014 7.64787 11.9178 7.22471 11.1132 6.99213C11.6336 6.46655 11.7833 5.84808 11.5624 5.13668C11.1241 4.23075 10.4145 3.89871 9.4335 4.1406C8.52324 4.54825 8.16519 5.24484 8.35929 6.23042C8.44851 6.53276 8.61124 6.78666 8.84757 6.99213C8.04293 7.22471 7.35934 7.64787 6.79681 8.26165C6.0651 6.84463 6.16924 5.49047 7.1093 4.19919C7.74809 3.45352 8.54886 2.9978 9.51162 2.83202ZM9.82412 4.62887C10.77 4.6852 11.1672 5.18 11.0155 6.11323C10.7141 6.74893 10.2258 6.96377 9.55069 6.75776C8.93917 6.42112 8.75038 5.91984 8.98429 5.25387C9.17838 4.92614 9.4583 4.71782 9.82412 4.62887ZM9.47256 7.44135C8.52495 7.60119 7.74371 8.0504 7.12884 8.78899C7.49161 9.21141 7.92129 9.54992 8.41788 9.8046C10.1286 10.4757 11.5999 10.1371 12.8319 8.78899C11.9491 7.76876 10.8293 7.31955 9.47256 7.44135Z" fill="white"/>
<path opacity="0.904" fill-rule="evenodd" clip-rule="evenodd" d="M15.2928 4.66796C15.3978 4.66156 15.502 4.66808 15.6053 4.68749C15.6522 4.72277 15.6848 4.76831 15.703 4.82421C15.8311 5.16534 15.8832 5.5169 15.8592 5.87889C15.69 6.03514 15.5207 6.03514 15.3514 5.87889C15.2972 5.56213 15.2255 5.24964 15.1366 4.9414C15.1598 4.83171 15.2118 4.74058 15.2928 4.66796Z" fill="white"/>
</g>
<defs>
<clipPath id="clip0_0_268">
<rect width="19.2" height="19.2" fill="white" transform="scale(1.04166)"/>
</clipPath>
</defs>
</svg>
