<svg width="12" height="12" viewBox="0 0 12 12" fill="none" xmlns="http://www.w3.org/2000/svg">
<path fill-rule="evenodd" clip-rule="evenodd" d="M6.49993 5.99941H9.24988C9.38795 5.99941 9.49987 6.11134 9.49987 6.24941C9.49987 6.38748 9.38795 6.4994 9.24988 6.4994H6.49993V9.24935C6.49993 9.38742 6.388 9.49935 6.24994 9.49935C6.11187 9.49935 5.99994 9.38742 5.99994 9.24935V6.4994H3.25C3.11193 6.4994 3 6.38748 3 6.24941C3 6.11134 3.11193 5.99941 3.25 5.99941H5.99994V3.24947C5.99994 3.1114 6.11187 2.99947 6.24994 2.99947C6.388 2.99947 6.49993 3.1114 6.49993 3.24947V5.99941Z" fill="#298F60"/>
</svg>
