<svg width="81" height="122" viewBox="0 0 81 122" fill="none" xmlns="http://www.w3.org/2000/svg">
<path d="M2.18701 1.1126C2.20641 0.51811 1.74021 0.02045 1.14571 0.00104754C0.551221 -0.0183548 0.0535606 0.447848 0.0341582 1.04234L2.18701 1.1126ZM12.1727 62.7083L11.2121 63.1955L12.1727 62.7083ZM80.0966 114.83C80.5172 114.41 80.5172 113.728 80.0966 113.307L73.2426 106.453C72.822 106.033 72.1401 106.033 71.7195 106.453C71.2989 106.874 71.2989 107.556 71.7195 107.977L77.8119 114.069L71.7195 120.161C71.2989 120.582 71.2989 121.264 71.7195 121.684C72.1401 122.105 72.822 122.105 73.2426 121.684L80.0966 114.83ZM1.11058 1.07747C0.0341582 1.04234 0.0341477 1.04267 0.0341324 1.04314C0.0341213 1.04348 0.0341015 1.04409 0.0340794 1.04479C0.0340353 1.04617 0.0339733 1.04812 0.0338945 1.05064C0.033737 1.05568 0.0335123 1.06298 0.0332273 1.07252C0.0326574 1.09159 0.0318466 1.11962 0.0308513 1.1564C0.0288605 1.22998 0.0261312 1.33859 0.0231136 1.48069C0.0170785 1.76489 0.00988952 2.18309 0.00514967 2.72293C-0.00433011 3.80254 -0.00401754 5.36896 0.0349317 7.32319C0.112814 11.2308 0.345262 16.6934 0.963723 22.9179C2.19792 35.3394 4.97926 50.9068 11.2121 63.1955L13.1332 62.2211C7.08291 50.2925 4.33321 35.0444 3.10716 22.7049C2.4955 16.5488 2.26551 11.1444 2.1885 7.28027C2.15 5.34859 2.14974 3.80288 2.15906 2.74184C2.16372 2.21135 2.17077 1.80209 2.17662 1.52642C2.17955 1.38859 2.18218 1.28416 2.18406 1.21467C2.185 1.17993 2.18575 1.15392 2.18626 1.13685C2.18652 1.12831 2.18671 1.122 2.18684 1.11795C2.1869 1.11593 2.18695 1.11447 2.18698 1.11358C2.18699 1.11313 2.187 1.11289 2.187 1.11266C2.18701 1.11256 2.18701 1.1126 1.11058 1.07747ZM11.2121 63.1955C26.3276 92.997 45.5186 115.146 79.335 115.146L79.335 112.992C46.7792 112.992 28.1426 91.8137 13.1332 62.2211L11.2121 63.1955Z" fill="#787979"/>
</svg>
