<svg width="98" height="144" viewBox="0 0 98 144" fill="none" xmlns="http://www.w3.org/2000/svg">
<path d="M1.0419 0.51665C1.05091 0.240476 0.834336 0.00928661 0.558163 0.000273065C0.28199 -0.00874033 0.0508 0.207836 0.0417866 0.484009L1.0419 0.51665ZM14.23 76.7623L14.6763 76.536L14.23 76.7623ZM97.6905 140.67C97.8859 140.474 97.8859 140.157 97.6905 139.962L94.5065 136.778C94.3111 136.583 93.9943 136.583 93.7989 136.778C93.6035 136.973 93.6035 137.29 93.7989 137.486L96.6292 140.316L93.7989 143.146C93.6035 143.342 93.6035 143.658 93.7989 143.854C93.9943 144.049 94.3111 144.049 94.5065 143.854L97.6905 140.67ZM0.541843 0.500329C0.0417866 0.484009 0.041778 0.484271 0.0417638 0.484709C0.0417516 0.48509 0.0417317 0.485705 0.0417073 0.486466C0.0416588 0.487989 0.0415881 0.490216 0.0414967 0.493141C0.0413137 0.498993 0.0410475 0.507641 0.0407062 0.519056C0.0400242 0.541887 0.0390431 0.575787 0.0378327 0.620516C0.035412 0.709975 0.0320741 0.842754 0.0283751 1.01694C0.0209772 1.36532 0.0121356 1.87934 0.00630216 2.54372C-0.00536494 3.87246 -0.00500118 5.80274 0.0430213 8.21219C0.139058 13.0307 0.425735 19.7676 1.18839 27.4433C2.71244 42.7821 6.14184 61.9217 13.7838 76.9886L14.6763 76.536C7.1191 61.6364 3.7044 42.645 2.18413 27.3444C1.42463 19.7005 1.1391 12.9906 1.04347 8.19225C0.995654 5.79328 0.995317 3.87262 1.00691 2.55251C1.0127 1.89247 1.02148 1.3826 1.02879 1.03819C1.03245 0.865982 1.03574 0.735143 1.03811 0.647583C1.0393 0.603802 1.04025 0.570842 1.0409 0.54894C1.04123 0.537989 1.04148 0.529803 1.04165 0.524411C1.04174 0.521715 1.0418 0.519718 1.04184 0.518423C1.04186 0.517776 1.04188 0.517332 1.04189 0.517008C1.0419 0.516741 1.0419 0.51665 0.541843 0.500329ZM13.7838 76.9886C32.4468 113.784 55.9794 140.816 97.3367 140.816L97.3367 139.816C56.565 139.816 33.2899 113.235 14.6763 76.536L13.7838 76.9886Z" fill="#1E1F20"/>
</svg>
