<svg width="104" height="104" viewBox="0 0 104 104" fill="none" xmlns="http://www.w3.org/2000/svg">
<path d="M15.2349 88.7651C20.0079 93.5496 25.5708 97.2925 31.7632 99.9137C38.173 102.626 44.9835 104 52 104C59.0165 104 65.827 102.626 72.2483 99.9137C78.4407 97.2925 84.0035 93.5496 88.7766 88.7651C93.5496 83.9921 97.2925 78.4292 99.9137 72.2368C102.626 65.827 104 59.0165 104 52C104 46.3914 103.119 40.8743 101.367 35.5976C100.795 33.8921 98.9637 32.965 97.2582 33.5373C95.5527 34.0982 94.637 35.941 95.1979 37.635C96.7317 42.2593 97.51 47.0896 97.51 52C97.51 64.1558 92.7827 75.5791 84.1867 84.1752C75.5906 92.7713 64.1558 97.51 52 97.51C39.8442 97.51 28.4209 92.7713 19.8248 84.1752C11.2287 75.5791 6.48998 64.1558 6.48998 52C6.48998 39.8442 11.2287 28.4094 19.8248 19.8133C28.4209 11.2173 39.8442 6.48998 52 6.48998C59.9551 6.48998 67.7843 8.57319 74.6405 12.5107C76.1858 13.4035 78.1774 12.8655 79.0702 11.3088C79.963 9.75214 79.425 7.77196 77.8684 6.87915C70.0392 2.3808 61.0883 0 52 0C44.9835 0 38.173 1.37354 31.7632 4.08629C25.5708 6.70746 20.0079 10.4504 15.2349 15.2234C10.4618 20.0079 6.70746 25.5593 4.08629 31.7517C1.37354 38.173 0 44.9835 0 52C0 59.0165 1.37354 65.827 4.08629 72.2368C6.70746 78.4292 10.4618 83.9921 15.2349 88.7651Z" fill="#298F60"/>
<path d="M43.5295 59.1543C43.5295 59.1543 37.3485 55.2283 29.8971 49.2076C28.2946 47.9142 25.9367 48.2118 24.7005 49.8486C23.8077 51.0504 23.7276 52.6643 24.5174 53.9349C28.2946 60.07 34.8075 69.742 39.8553 76.0947C42.2361 79.0936 46.4597 79.3797 49.2297 76.7357C65.1971 61.5809 80.0199 42.4658 97.7615 15.9908C98.7916 14.457 98.2766 12.3738 96.6512 11.4924C95.4036 10.8285 93.8698 11.0804 92.8969 12.0991C73.2094 32.954 63.1139 42.855 43.5295 59.1543Z" fill="#298F60"/>
</svg>
