<svg width="28" height="28" viewBox="0 0 28 28" fill="none" xmlns="http://www.w3.org/2000/svg">
<path d="M14 0C6.26875 0 0 6.26875 0 14C0 21.7312 6.26875 28 14 28C21.7312 28 28 21.7312 28 14C28 6.26875 21.7312 0 14 0ZM19.5156 18.3031L18.6219 19.5219C18.6024 19.5484 18.5779 19.5708 18.5498 19.5879C18.5217 19.6049 18.4904 19.6162 18.4579 19.6212C18.4254 19.6261 18.3922 19.6246 18.3603 19.6167C18.3284 19.6087 18.2983 19.5946 18.2719 19.575L13.1031 15.8062C13.0709 15.7831 13.0448 15.7526 13.0268 15.7173C13.0089 15.6819 12.9997 15.6428 13 15.6031V7C13 6.8625 13.1125 6.75 13.25 6.75H14.7531C14.8906 6.75 15.0031 6.8625 15.0031 7V14.7344L19.4594 17.9562C19.5719 18.0344 19.5969 18.1906 19.5156 18.3031Z" fill="#FFA800"/>
</svg>
