<svg width="20" height="20" viewBox="0 0 20 20" fill="none" xmlns="http://www.w3.org/2000/svg">
<g clip-path="url(#clip0_0_145)">
<path opacity="0.917" fill-rule="evenodd" clip-rule="evenodd" d="M9.90224 0.214638C10.6269 0.224895 11.1477 0.550412 11.4647 1.19119C11.7386 1.22116 12.012 1.25371 12.285 1.28885C12.6306 1.40005 12.878 1.6214 13.0272 1.9529C13.5871 1.96592 14.147 1.97894 14.7069 1.99196C15.6769 2.19378 16.2303 2.78622 16.367 3.76929C16.3931 8.4958 16.3931 13.2223 16.367 17.9488C16.2024 19.0379 15.5709 19.6304 14.4725 19.7262C12.9751 19.7327 11.4777 19.7392 9.98037 19.7457C8.36491 19.7512 6.75036 19.7317 5.13667 19.6871C4.22253 19.463 3.70823 18.8836 3.59371 17.9488C3.56767 13.2223 3.56767 8.4958 3.59371 3.76929C3.73048 2.78622 4.28386 2.19378 5.25385 1.99196C5.81373 1.97894 6.37365 1.96592 6.93352 1.9529C7.0827 1.6214 7.33012 1.40005 7.6757 1.28885C7.94871 1.25371 8.22214 1.22116 8.49601 1.19119C8.79112 0.614072 9.25987 0.288553 9.90224 0.214638ZM9.70693 0.761508C10.1987 0.685364 10.5958 0.841612 10.8983 1.23025C10.9759 1.39857 11.0605 1.56133 11.1522 1.71853C11.4257 1.73155 11.6991 1.74457 11.9725 1.75759C12.345 1.81104 12.5533 2.02588 12.5975 2.40212C12.5581 2.76049 12.3628 2.97533 12.0116 3.04664C10.6574 3.07268 9.3033 3.07268 7.94914 3.04664C7.59797 2.97533 7.40266 2.76049 7.36321 2.40212C7.40254 2.0747 7.57832 1.86637 7.89054 1.77712C8.19562 1.74771 8.50159 1.72818 8.8085 1.71853C8.91038 1.50837 9.02756 1.30655 9.16006 1.11307C9.31967 0.955467 9.50193 0.83828 9.70693 0.761508ZM5.33198 2.48024C5.84045 2.46725 6.34825 2.48028 6.8554 2.5193C6.95145 3.10362 7.29 3.44867 7.87101 3.55445C9.27725 3.58049 10.6835 3.58049 12.0897 3.55445C12.6707 3.44867 13.0093 3.10362 13.1053 2.5193C13.6126 2.47376 14.1204 2.46724 14.6288 2.49977C15.3696 2.6678 15.7798 3.13004 15.8592 3.88648C15.8853 8.52186 15.8853 13.1572 15.8592 17.7926C15.7898 18.4998 15.4187 18.962 14.7459 19.1793C11.5689 19.2053 8.39183 19.2053 5.21479 19.1793C4.54206 18.962 4.17097 18.4998 4.10152 17.7926C4.07546 13.1572 4.07546 8.52186 4.10152 3.88648C4.18714 3.13046 4.5973 2.66171 5.33198 2.48024ZM13.7303 10.7223C14.0428 10.7223 14.3553 10.7223 14.6678 10.7223C14.6678 12.389 14.6678 14.0556 14.6678 15.7223C14.3553 15.7223 14.0428 15.7223 13.7303 15.7223C13.7303 14.0556 13.7303 12.389 13.7303 10.7223ZM11.4647 12.2458C11.7772 12.2458 12.0897 12.2458 12.4022 12.2458C12.4087 13.3917 12.4022 14.5375 12.3827 15.6832C12.0801 15.7216 11.7741 15.7346 11.4647 15.7223C11.4647 14.5634 11.4647 13.4046 11.4647 12.2458ZM9.19912 13.1833C9.49861 13.1833 9.79806 13.1833 10.0976 13.1833C10.0976 14.0296 10.0976 14.8759 10.0976 15.7223C9.79806 15.7223 9.49861 15.7223 9.19912 15.7223C9.19912 14.8759 9.19912 14.0296 9.19912 13.1833ZM6.81634 14.2379C7.11583 14.2379 7.41528 14.2379 7.71476 14.2379C7.71476 14.7327 7.71476 15.2275 7.71476 15.7223C7.41528 15.7223 7.11583 15.7223 6.81634 15.7223C6.81634 15.2275 6.81634 14.7327 6.81634 14.2379Z" fill="white"/>
<path opacity="0.929" fill-rule="evenodd" clip-rule="evenodd" d="M5.7226 4.66803C8.56112 4.66151 11.3997 4.66803 14.2381 4.68756C14.4267 4.76529 14.4788 4.90201 14.3944 5.09771C14.3739 5.12474 14.3478 5.14427 14.3163 5.1563C11.4257 5.18236 8.53507 5.18236 5.64447 5.1563C5.51334 5.03978 5.49381 4.90307 5.58588 4.74615C5.63674 4.7233 5.68233 4.69729 5.7226 4.66803Z" fill="white"/>
<path opacity="0.927" fill-rule="evenodd" clip-rule="evenodd" d="M5.68354 5.95687C8.04031 5.95035 10.3971 5.95687 12.7538 5.97641C12.9584 6.13984 12.9584 6.29609 12.7538 6.44515C10.384 6.47121 8.01425 6.47121 5.64447 6.44515C5.48432 6.26722 5.49733 6.10445 5.68354 5.95687Z" fill="white"/>
<path opacity="0.924" fill-rule="evenodd" clip-rule="evenodd" d="M5.64447 7.24623C7.25911 7.23971 8.87366 7.24623 10.4882 7.26576C10.6956 7.42017 10.6956 7.57642 10.4882 7.73451C8.87362 7.76056 7.25903 7.76056 5.64447 7.73451C5.49006 7.57181 5.49006 7.40908 5.64447 7.24623Z" fill="white"/>
<path opacity="0.901" fill-rule="evenodd" clip-rule="evenodd" d="M13.7303 8.06654C14.0718 8.03662 14.1825 8.17986 14.0624 8.49622C13.5367 9.16512 12.9964 9.82269 12.4413 10.4689C12.3318 10.4984 12.2276 10.4853 12.1288 10.4298C11.8755 10.131 11.6021 9.85101 11.3085 9.58996C10.7687 10.1102 10.2348 10.6376 9.70693 11.172C9.62119 11.2256 9.53002 11.2386 9.4335 11.211C9.18612 11.0157 8.9387 10.8204 8.69132 10.6251C8.65225 10.5991 8.61319 10.5991 8.57413 10.6251C7.79422 11.3138 7.02598 12.0169 6.26947 12.7345C6.10904 12.9005 5.94627 12.907 5.78119 12.754C5.75033 12.6316 5.76334 12.5144 5.82025 12.4024C6.68614 11.6147 7.55199 10.8269 8.41788 10.0392C8.51671 9.98363 8.62089 9.97062 8.73038 10.0001C8.98522 10.2094 9.24561 10.4112 9.51162 10.6056C10.0645 10.0723 10.6113 9.53192 11.1522 8.9845C11.2058 8.9688 11.2579 8.94927 11.3085 8.92591C11.6703 9.18344 11.9958 9.48289 12.285 9.82433C12.7813 9.24997 13.2631 8.66403 13.7303 8.06654Z" fill="white"/>
<path opacity="0.93" fill-rule="evenodd" clip-rule="evenodd" d="M13.5741 10.2145C13.991 10.208 14.4076 10.2145 14.8241 10.2341C15.0023 10.2976 15.1129 10.4213 15.1561 10.6052C15.1822 12.3499 15.1822 14.0947 15.1561 15.8395C15.1125 16.0248 15.0019 16.1485 14.8241 16.2106C14.4074 16.2366 13.9908 16.2366 13.5741 16.2106C13.3944 16.1482 13.2838 16.0244 13.2421 15.8395C13.216 14.0947 13.216 12.3499 13.2421 10.6052C13.2913 10.4194 13.402 10.2892 13.5741 10.2145ZM13.7303 10.7223C13.7303 12.389 13.7303 14.0556 13.7303 15.7223C14.0428 15.7223 14.3553 15.7223 14.6678 15.7223C14.6678 14.0556 14.6678 12.389 14.6678 10.7223C14.3553 10.7223 14.0428 10.7223 13.7303 10.7223Z" fill="white"/>
<path opacity="0.931" fill-rule="evenodd" clip-rule="evenodd" d="M11.2694 11.7384C11.6993 11.7318 12.129 11.7384 12.5585 11.7579C12.6927 11.8011 12.7904 11.8857 12.8514 12.0118C12.9154 13.273 12.9284 14.536 12.8905 15.8008C12.8425 16.0084 12.7188 16.1451 12.5194 16.211C12.1158 16.237 11.7121 16.237 11.3085 16.211C11.1288 16.1486 11.0182 16.0249 10.9765 15.8399C10.9504 14.5899 10.9504 13.3399 10.9765 12.0899C11.0406 11.9415 11.1382 11.8243 11.2694 11.7384ZM11.4647 12.2462C11.4647 13.405 11.4647 14.5638 11.4647 15.7227C11.7741 15.735 12.0801 15.722 12.3827 15.6836C12.4022 14.5379 12.4087 13.3921 12.4022 12.2462C12.0897 12.2462 11.7772 12.2462 11.4647 12.2462Z" fill="white"/>
<path opacity="0.912" fill-rule="evenodd" clip-rule="evenodd" d="M9.04288 12.6758C9.45975 12.6692 9.87642 12.6758 10.2929 12.6953C10.4296 12.7539 10.5272 12.8515 10.5858 12.9883C10.6493 13.9108 10.6624 14.8352 10.6249 15.7617C10.5884 15.9672 10.4778 16.117 10.2929 16.2109C9.87619 16.2369 9.45955 16.2369 9.04288 16.2109C8.88011 16.1523 8.76944 16.0416 8.71085 15.8789C8.6848 14.9284 8.6848 13.9778 8.71085 13.0273C8.77679 12.8638 8.88745 12.7467 9.04288 12.6758ZM9.19913 13.1836C9.19913 14.0299 9.19913 14.8762 9.19913 15.7226C9.49862 15.7226 9.79807 15.7226 10.0976 15.7226C10.0976 14.8762 10.0976 14.0299 10.0976 13.1836C9.79807 13.1836 9.49862 13.1836 9.19913 13.1836Z" fill="white"/>
<path opacity="0.93" fill-rule="evenodd" clip-rule="evenodd" d="M6.66009 13.7301C7.06395 13.7236 7.46758 13.7301 7.87102 13.7496C8.03379 13.8082 8.14445 13.9189 8.20304 14.0817C8.2291 14.6806 8.2291 15.2796 8.20304 15.8785C8.14445 16.0413 8.03379 16.152 7.87102 16.2106C7.46739 16.2366 7.06372 16.2366 6.66009 16.2106C6.54138 16.1703 6.44373 16.0986 6.36713 15.9957C6.30318 15.3483 6.29017 14.6972 6.32806 14.0426C6.40908 13.9029 6.51974 13.7987 6.66009 13.7301ZM6.81634 14.2379C6.81634 14.7327 6.81634 15.2275 6.81634 15.7223C7.11583 15.7223 7.41528 15.7223 7.71477 15.7223C7.71477 15.2275 7.71477 14.7327 7.71477 14.2379C7.41528 14.2379 7.11583 14.2379 6.81634 14.2379Z" fill="white"/>
</g>
<defs>
<clipPath id="clip0_0_145">
<rect width="19.2" height="19.2" fill="white" transform="scale(1.04166)"/>
</clipPath>
</defs>
</svg>
