<svg width="111" height="132" viewBox="0 0 111 132" fill="none" xmlns="http://www.w3.org/2000/svg">
<path d="M93.936 74.208H83.232V38.76C83.232 23.304 70.632 10.728 55.176 10.728C39.72 10.728 27.12 23.304 27.12 38.76V74.208H16.416V38.76C16.416 17.4 33.792 0 55.176 0C76.56 0 93.936 17.4 93.936 38.76V74.208Z" fill="#1E1F20"/>
<path d="M110.352 127.848C110.352 130.128 108.48 132 106.2 132H4.152C1.872 132 0 130.128 0 127.848V61.536C0 59.256 1.872 57.384 4.152 57.384H106.2C108.48 57.384 110.352 59.256 110.352 61.536V127.848Z" fill="#298F60"/>
<path d="M110.352 127.848V87.2161C76.728 115.656 28.272 126.36 0.791992 130.272C1.55999 131.304 2.75999 132 4.15199 132H106.2C108.48 132 110.352 130.128 110.352 127.848Z" fill="#27855A"/>
<path d="M64.296 83.4481C64.296 78.4321 60.216 74.3521 55.176 74.3521C50.136 74.3521 46.056 78.4321 46.056 83.4481C46.056 86.4721 47.52 89.1121 49.752 90.7681L46.848 111.408H63.504L60.6 90.7681C62.832 89.1121 64.296 86.4721 64.296 83.4481Z" fill="#58595A"/>
<path d="M3.47998 65.2559V79.5359C3.86398 73.4639 6.76798 60.2639 25.032 60.2639H8.44798C5.71198 60.2639 3.47998 62.5199 3.47998 65.2559Z" fill="#27855A"/>
<path d="M46.848 111.408C46.848 111.408 59.208 107.904 60.6 90.7681L63.504 111.408H46.848Z" fill="#3E3D40"/>
</svg>
