<svg width="20" height="20" viewBox="0 0 20 20" fill="none" xmlns="http://www.w3.org/2000/svg">
<g clip-path="url(#clip0_35_7477)">
<path opacity="0.965" fill-rule="evenodd" clip-rule="evenodd" d="M10.5664 -0.0195185C10.918 -0.0195185 11.2695 -0.0195185 11.6211 -0.0195185C13.594 0.147054 15.5732 0.309815 17.5586 0.468762C18.5934 0.722325 19.2379 1.36686 19.4922 2.40235C19.6504 4.38786 19.8132 6.367 19.9805 8.33985C19.9805 8.69141 19.9805 9.04298 19.9805 9.39454C19.883 9.77208 19.7202 10.1236 19.4922 10.4492C16.4779 13.4636 13.4636 16.4779 10.4492 19.4922C10.1281 19.727 9.77653 19.8897 9.39454 19.9805C9.10809 19.9805 8.82161 19.9805 8.53516 19.9805C8.17575 19.8855 7.83723 19.7358 7.51954 19.5313C5.16927 17.181 2.81902 14.8307 0.468762 12.4805C0.233981 12.1593 0.0712205 11.8078 -0.0195185 11.4258C-0.0195185 11.1393 -0.0195185 10.8529 -0.0195185 10.5664C0.0712205 10.1844 0.233981 9.83286 0.468762 9.51173C3.48308 6.49739 6.49739 3.48308 9.51173 0.468762C9.83731 0.240732 10.1889 0.0779724 10.5664 -0.0195185ZM10.9961 1.23048C13.0505 1.40204 15.1077 1.5648 17.168 1.71876C17.7864 1.81642 18.1445 2.17449 18.2422 2.79298C18.3854 4.65497 18.5286 6.51692 18.6719 8.37891C18.6979 8.66536 18.6979 8.95184 18.6719 9.23829C18.6274 9.37938 18.5623 9.50962 18.4766 9.62891C15.5143 12.5911 12.5521 15.5534 9.58985 18.5156C9.39583 18.6302 9.18747 18.7018 8.96485 18.7305C8.74223 18.7018 8.53387 18.6302 8.33985 18.5156C6.04169 16.2175 3.7435 13.9193 1.44532 11.6211C1.21095 11.2044 1.21095 10.7878 1.44532 10.3711C4.4206 7.39583 7.39583 4.4206 10.3711 1.44532C10.5698 1.32923 10.7781 1.25762 10.9961 1.23048ZM14.3945 4.23829C15.2796 4.21841 15.7158 4.6481 15.7031 5.52735C15.4997 6.23114 15.0375 6.52411 14.3164 6.40626C13.8311 6.21345 13.5576 5.85536 13.4961 5.33204C13.5699 4.77689 13.8694 4.41231 14.3945 4.23829Z" fill="#F9F9F9"/>
<path opacity="0.964" fill-rule="evenodd" clip-rule="evenodd" d="M14.3164 2.94922C15.4915 2.88854 16.3314 3.38333 16.8359 4.43359C17.2695 5.86433 16.8203 6.91249 15.4883 7.57812C14.3536 7.93738 13.4096 7.65746 12.6562 6.73828C12.0487 5.7571 12.0748 4.79359 12.7344 3.84765C13.1527 3.349 13.68 3.04952 14.3164 2.94922ZM14.3945 4.23828C13.8694 4.4123 13.5699 4.77687 13.4961 5.33203C13.5576 5.85535 13.8311 6.21343 14.3164 6.40625C15.0375 6.5241 15.4997 6.23113 15.7031 5.52734C15.7158 4.64808 15.2796 4.21839 14.3945 4.23828Z" fill="#F9F9F9"/>
</g>
<defs>
<clipPath id="clip0_35_7477">
<rect width="19.2" height="19.2" fill="white" transform="scale(1.04167)"/>
</clipPath>
</defs>
</svg>
