<svg width="20" height="20" viewBox="0 0 20 20" fill="none" xmlns="http://www.w3.org/2000/svg">
<g clip-path="url(#clip0_0_107)">
<path opacity="0.892" fill-rule="evenodd" clip-rule="evenodd" d="M3.06638 0.409907C7.02606 0.390813 10.9843 0.410344 14.9413 0.4685C15.5375 0.663822 15.8826 1.07397 15.9764 1.69896C15.9894 2.05052 16.0025 2.40207 16.0155 2.75363C17.4514 3.05688 18.1415 3.94229 18.0858 5.40986C17.8644 6.56871 17.1743 7.25878 16.0155 7.48015C16.0025 11.0739 15.9894 14.6676 15.9764 18.2613C15.8696 18.9801 15.4594 19.4033 14.7459 19.5308C10.8527 19.5569 6.95958 19.5569 3.06638 19.5308C2.40833 19.3936 2.0112 18.9964 1.87498 18.3394C1.84894 12.7665 1.84894 7.1937 1.87498 1.62083C2.01826 0.963264 2.41539 0.559624 3.06638 0.409907ZM3.06638 0.917714C6.97263 0.911203 10.8788 0.917714 14.785 0.937245C15.1341 1.06493 15.362 1.30581 15.4686 1.65989C15.4946 2.02447 15.4946 2.38905 15.4686 2.75363C14.1778 3.0158 13.4812 3.80356 13.3788 5.11689C13.4812 6.43024 14.1778 7.21796 15.4686 7.48015C15.4946 11.0869 15.4946 14.6936 15.4686 18.3003C15.362 18.6544 15.1341 18.8953 14.785 19.023C10.8788 19.0491 6.97259 19.0491 3.06638 19.023C2.70831 18.9253 2.48044 18.6975 2.38279 18.3394C2.35675 12.7665 2.35675 7.1937 2.38279 1.62083C2.48761 1.26216 2.71547 1.02779 3.06638 0.917714ZM15.3709 3.26144C16.5129 3.1609 17.2485 3.65569 17.5779 4.7458C17.6975 5.8886 17.2092 6.6243 16.1131 6.95281C14.9703 7.07234 14.2346 6.58406 13.9061 5.48798C13.7946 4.3442 14.2829 3.60203 15.3709 3.26144ZM8.76944 4.04268C9.44545 4.04807 9.76447 4.38658 9.72647 5.0583C9.48971 5.6356 9.07956 5.81138 8.49601 5.58564C8.09773 5.29595 8.00008 4.92486 8.20304 4.47237C8.34171 4.25721 8.53054 4.11401 8.76944 4.04268ZM8.73038 6.89422C9.34233 6.8714 9.8306 7.10578 10.1952 7.59733C10.4901 8.00495 10.6528 8.46068 10.6835 8.96451C9.51162 8.96451 8.33976 8.96451 7.1679 8.96451C7.21712 8.18209 7.55567 7.56362 8.18351 7.10906C8.36109 7.01316 8.54335 6.94156 8.73038 6.89422ZM8.76944 17.48C9.08839 17.4283 9.23811 17.5585 9.21866 17.8707C9.04081 18.1557 8.8455 18.1687 8.63273 17.9097C8.58905 17.737 8.63464 17.5937 8.76944 17.48Z" fill="white"/>
<path opacity="0.947" fill-rule="evenodd" clip-rule="evenodd" d="M6.26947 1.50389C7.53254 1.49738 8.79554 1.50389 10.0585 1.52342C10.2454 1.65076 10.2585 1.79399 10.0976 1.9531C8.82151 1.97915 7.54551 1.97915 6.26947 1.9531C6.11486 1.80526 6.11486 1.65552 6.26947 1.50389Z" fill="white"/>
<path opacity="0.883" fill-rule="evenodd" clip-rule="evenodd" d="M10.996 1.50405C11.2092 1.48855 11.4175 1.50808 11.621 1.56264C11.7291 1.70353 11.7161 1.83374 11.5819 1.95326C11.3736 1.9793 11.1652 1.9793 10.9569 1.95326C10.8443 1.79022 10.8573 1.64048 10.996 1.50405Z" fill="white"/>
<path opacity="0.906" fill-rule="evenodd" clip-rule="evenodd" d="M8.61319 3.57417C9.57111 3.49931 10.118 3.93549 10.2538 4.88275C10.209 5.50047 9.89646 5.91711 9.31631 6.13273C8.51616 6.2959 7.96277 6.00293 7.65617 5.25384C7.5116 4.42263 7.83058 3.86274 8.61319 3.57417ZM8.76944 4.04291C8.53054 4.11424 8.34171 4.25744 8.20304 4.47259C8.00007 4.92509 8.09773 5.29618 8.49601 5.58586C9.07955 5.8116 9.48971 5.63582 9.72646 5.05853C9.76447 4.38681 9.44545 4.0483 8.76944 4.04291Z" fill="white"/>
<path opacity="0.867" fill-rule="evenodd" clip-rule="evenodd" d="M16.4256 4.31614C16.7476 4.3061 16.8452 4.44935 16.7186 4.74583C16.3475 5.11692 15.9764 5.48801 15.6053 5.8591C15.5065 5.91464 15.4023 5.92765 15.2928 5.89816C15.104 5.70937 14.9152 5.52055 14.7264 5.33176C14.6875 5.04532 14.8112 4.93465 15.0975 4.99973C15.1973 5.12703 15.3145 5.2182 15.4491 5.27316C15.7705 4.9452 16.096 4.62618 16.4256 4.31614Z" fill="white"/>
<path opacity="0.901" fill-rule="evenodd" clip-rule="evenodd" d="M8.53507 6.42584C9.49982 6.33858 10.2355 6.70315 10.7421 7.51958C11.1032 8.11407 11.2269 8.74559 11.1132 9.4141C9.6842 9.4787 8.25191 9.49171 6.81634 9.45316C6.76044 9.43499 6.71489 9.40242 6.67962 9.3555C6.59927 8.15551 7.06149 7.23755 8.06632 6.60162C8.22534 6.53795 8.38159 6.47936 8.53507 6.42584ZM8.73038 6.89459C8.54335 6.94193 8.36109 7.01353 8.18351 7.10943C7.55566 7.564 7.21711 8.18247 7.16789 8.96488C8.33976 8.96488 9.51162 8.96488 10.6835 8.96488C10.6528 8.46106 10.49 8.00532 10.1952 7.59771C9.8306 7.10615 9.34233 6.87178 8.73038 6.89459Z" fill="white"/>
<path opacity="0.955" fill-rule="evenodd" clip-rule="evenodd" d="M4.62886 10.8396C7.49344 10.8331 10.358 10.8396 13.2225 10.8592C13.3788 11.0024 13.3788 11.1456 13.2225 11.2889C10.358 11.3149 7.4934 11.3149 4.62886 11.2889C4.47476 11.1392 4.47476 10.9895 4.62886 10.8396Z" fill="white"/>
<path opacity="0.955" fill-rule="evenodd" clip-rule="evenodd" d="M4.62886 12.9102C7.49344 12.9037 10.358 12.9102 13.2225 12.9298C13.3788 13.073 13.3788 13.2162 13.2225 13.3594C10.358 13.3855 7.4934 13.3855 4.62886 13.3594C4.47476 13.2098 4.47476 13.0601 4.62886 12.9102Z" fill="white"/>
<path opacity="0.95" fill-rule="evenodd" clip-rule="evenodd" d="M6.73821 14.9803C8.1966 14.9738 9.6549 14.9803 11.1132 14.9999C11.2694 15.1431 11.2694 15.2863 11.1132 15.4295C9.65486 15.4556 8.19652 15.4556 6.73821 15.4295C6.58411 15.2799 6.58411 15.1302 6.73821 14.9803Z" fill="white"/>
<path opacity="0.908" fill-rule="evenodd" clip-rule="evenodd" d="M8.73038 16.9725C9.45354 16.9599 9.77256 17.3115 9.68741 18.0272C9.46217 18.514 9.09108 18.6768 8.57414 18.5155C8.11422 18.219 8.00352 17.8218 8.24211 17.3241C8.37097 17.1529 8.53375 17.0357 8.73038 16.9725ZM8.76945 17.4803C8.63464 17.594 8.58906 17.7372 8.63273 17.91C8.8455 18.169 9.04081 18.156 9.21866 17.8709C9.23811 17.5588 9.08839 17.4286 8.76945 17.4803Z" fill="white"/>
</g>
<defs>
<clipPath id="clip0_0_107">
<rect width="19.2" height="19.2" fill="white" transform="scale(1.04166)"/>
</clipPath>
</defs>
</svg>
