<svg width="12" height="12" viewBox="0 0 12 12" fill="none" xmlns="http://www.w3.org/2000/svg">
<g clip-path="url(#clip0_0_334)">
<path d="M10.5 9.5V8.67703C10.5 8.26813 10.251 7.90042 9.87139 7.74856L8.85432 7.34173C8.37143 7.14857 7.82109 7.35781 7.5885 7.82299L7.5 8C7.5 8 6.25 7.75 5.25 6.75C4.25 5.75 4 4.5 4 4.5L4.17701 4.4115C4.64219 4.17891 4.85143 3.62857 4.65827 3.14568L4.25144 2.12861C4.09958 1.74895 3.73187 1.5 3.32297 1.5H2.5C1.94772 1.5 1.5 1.94772 1.5 2.5C1.5 6.91828 5.08172 10.5 9.5 10.5C10.0523 10.5 10.5 10.0523 10.5 9.5Z" stroke="#298F60" stroke-width="1.1" stroke-linejoin="round"/>
</g>
<defs>
<clipPath id="clip0_0_334">
<rect width="12" height="12" fill="white"/>
</clipPath>
</defs>
</svg>
