<svg width="48" height="48" viewBox="0 0 48 48" fill="none" xmlns="http://www.w3.org/2000/svg">
<g clip-path="url(#clip0_2_11203)">
<path d="M24 27.577L20.462 24.038L21.169 23.319L23.5 25.65V17H24.5V25.65L26.83 23.32L27.538 24.038L24 27.577ZM18.615 31C18.155 31 17.771 30.846 17.463 30.538C17.1543 30.2293 17 29.845 17 29.385V26.962H18V29.385C18 29.5383 18.064 29.6793 18.192 29.808C18.3207 29.936 18.4617 30 18.615 30H29.385C29.5383 30 29.6793 29.936 29.808 29.808C29.936 29.6793 30 29.5383 30 29.385V26.962H31V29.385C31 29.845 30.846 30.229 30.538 30.537C30.2293 30.8457 29.845 31 29.385 31H18.615Z" fill="#298F60"/>
</g>
<defs>
<clipPath id="clip0_2_11203">
<rect x="4" y="4" width="40" height="40" rx="20" fill="white"/>
</clipPath>
</defs>
</svg>
