<svg width="24" height="24" viewBox="0 0 24 24" fill="none" xmlns="http://www.w3.org/2000/svg">
<rect opacity="0.01" width="24" height="24" fill="black"/>
<path fill-rule="evenodd" clip-rule="evenodd" d="M6.34309 4.92912L12 10.5852L17.6568 4.92912C18.0473 4.5386 18.6805 4.5386 19.071 4.92912C19.4615 5.31965 19.4615 5.95281 19.071 6.34334L13.415 12.0002L19.071 17.657C19.4615 18.0476 19.4615 18.6807 19.071 19.0713C18.6805 19.4618 18.0473 19.4618 17.6568 19.0713L12 13.4152L6.34309 19.0713C5.95257 19.4618 5.3194 19.4618 4.92888 19.0713C4.53836 18.6807 4.53836 18.0476 4.92888 17.657L10.585 12.0002L4.92888 6.34334C4.53836 5.95281 4.53836 5.31965 4.92888 4.92912C5.3194 4.5386 5.95257 4.5386 6.34309 4.92912Z" fill="#1E1F20"/>
</svg>
