<svg width="24" height="24" viewBox="0 0 24 24" fill="none" xmlns="http://www.w3.org/2000/svg">
<rect opacity="0.01" width="24" height="24" fill="white"/>
<path fill-rule="evenodd" clip-rule="evenodd" d="M12.7071 5.29289C13.0676 5.65338 13.0953 6.22061 12.7903 6.6129L12.7071 6.70711L8.415 11H20C20.5523 11 21 11.4477 21 12C21 12.5128 20.614 12.9355 20.1166 12.9933L20 13H8.415L12.7071 17.2929C13.0676 17.6534 13.0953 18.2206 12.7903 18.6129L12.7071 18.7071C12.3466 19.0676 11.7794 19.0953 11.3871 18.7903L11.2929 18.7071L5.29289 12.7071C5.2575 12.6717 5.22531 12.6343 5.19633 12.5953L5.12467 12.4841L5.07123 12.3713L5.03584 12.266L5.01102 12.1485L5.00398 12.0898L5 12L5.00279 11.9248L5.02024 11.7993L5.04974 11.6879L5.09367 11.5768L5.146 11.4793L5.2097 11.3871L5.29289 11.2929L11.2929 5.29289C11.6834 4.90237 12.3166 4.90237 12.7071 5.29289Z" fill="white"/>
</svg>
