<svg width="20" height="20" viewBox="0 0 20 20" fill="none" xmlns="http://www.w3.org/2000/svg">
<g clip-path="url(#clip0_0_133)">
<path opacity="0.942" fill-rule="evenodd" clip-rule="evenodd" d="M7.63664 -0.0193276C7.92308 -0.0193276 8.20956 -0.0193276 8.49601 -0.0193276C8.97796 0.102659 9.47272 0.154742 9.98037 0.136921C10.488 0.154742 10.9828 0.102659 11.4647 -0.0193276C11.7512 -0.0193276 12.0377 -0.0193276 12.3241 -0.0193276C13.2567 0.216686 13.8492 0.802617 14.1014 1.73847C14.1916 2.35005 14.2762 2.96202 14.3553 3.57439C14.8912 3.55852 15.425 3.57805 15.9569 3.63298C16.1197 3.73658 16.1978 3.88632 16.1912 4.08219C16.0179 5.14042 15.3929 5.63519 14.3163 5.56655C14.3098 5.82729 14.3163 6.08772 14.3358 6.3478C14.5347 6.52424 14.6388 6.74556 14.6483 7.01185C14.7555 7.73044 14.4625 8.18618 13.7694 8.37902C13.607 9.49921 13.0601 10.3716 12.1288 10.9962C12.0833 11.2295 12.0768 11.4638 12.1093 11.6993C12.1274 11.7552 12.16 11.8007 12.2069 11.836C12.4524 11.8922 12.6998 11.9182 12.9491 11.9141C13.0708 11.785 13.2205 11.7264 13.3983 11.7384C13.7472 11.7738 14.0923 11.8323 14.4334 11.9141C14.5853 12.017 14.7155 12.1407 14.8241 12.2852C15.8754 12.4299 16.7022 12.9377 17.3045 13.8087C17.6029 14.274 17.7851 14.7818 17.8514 15.3321C17.8774 16.6472 17.8774 17.9622 17.8514 19.2774C17.7466 19.636 17.5187 19.8704 17.1678 19.9805C12.3762 19.9805 7.58457 19.9805 2.79294 19.9805C2.44203 19.8704 2.21417 19.636 2.10935 19.2774C2.08331 17.9622 2.08331 16.6472 2.10935 15.3321C2.32959 13.979 3.06526 13.022 4.31636 12.461C4.58601 12.3857 4.85944 12.3271 5.13667 12.2852C5.24522 12.1407 5.37545 12.017 5.52729 11.9141C5.9376 11.8023 6.35427 11.7502 6.77727 11.7579C6.89427 11.8371 7.01798 11.8957 7.14836 11.9337C7.35051 11.9032 7.55234 11.8707 7.75383 11.836C7.80074 11.8007 7.83332 11.7552 7.85148 11.6993C7.8839 11.4638 7.87742 11.2295 7.83195 10.9962C6.88786 10.3629 6.34099 9.47749 6.19134 8.33996C5.76713 8.29973 5.48717 8.0784 5.35151 7.67591C5.27338 7.36341 5.27338 7.05091 5.35151 6.73842C5.4042 6.58088 5.49533 6.45068 5.62494 6.3478C5.64447 6.08772 5.65096 5.82729 5.64447 5.56655C4.5678 5.63519 3.94281 5.14042 3.76949 4.08219C3.76292 3.88632 3.84104 3.73658 4.00387 3.63298C4.5357 3.57805 5.06956 3.55852 5.60541 3.57439C5.68451 2.96202 5.76916 2.35005 5.85931 1.73847C6.11154 0.802617 6.70399 0.216686 7.63664 -0.0193276ZM8.02726 0.566604C9.32283 0.826656 10.6184 0.826656 11.9139 0.566604C12.6498 0.641201 13.1576 1.0188 13.4374 1.69941C13.5478 2.32261 13.6454 2.94761 13.7303 3.57439C11.8683 3.56787 10.0064 3.57439 8.14445 3.59392C7.88758 3.63981 7.80293 3.78955 7.89054 4.04313C7.91008 4.11473 7.95566 4.16032 8.02726 4.17985C10.5272 4.19938 13.0272 4.2059 15.5272 4.19938C15.4331 4.57344 15.1988 4.81433 14.8241 4.92203C11.5949 4.94808 8.36581 4.94808 5.13667 4.92203C4.76304 4.81535 4.52866 4.57445 4.43355 4.19938C5.27999 4.2059 6.12634 4.19938 6.97258 4.17985C7.1809 3.99755 7.1809 3.81527 6.97258 3.63298C6.72817 3.58152 6.48075 3.56199 6.2304 3.57439C6.3074 3.06786 6.37904 2.56006 6.44525 2.05096C6.6154 1.17108 7.14274 0.67629 8.02726 0.566604ZM6.26947 5.56655C6.42572 5.56655 6.58196 5.56655 6.73821 5.56655C6.7447 5.82729 6.73821 6.08772 6.71868 6.3478C6.58864 6.27955 6.45193 6.22748 6.30853 6.19155C6.26966 5.98483 6.25665 5.77651 6.26947 5.56655ZM7.36321 5.56655C9.10799 5.56655 10.8527 5.56655 12.5975 5.56655C12.5824 6.0244 12.6019 6.4801 12.6561 6.93373C12.8139 7.14083 13.0157 7.19943 13.2616 7.10951C13.8843 6.60283 14.1251 6.73955 13.9842 7.51966C13.9661 7.57556 13.9335 7.6211 13.8866 7.65638C13.7076 7.7011 13.5253 7.72712 13.3397 7.7345C13.2838 7.75266 13.2383 7.78524 13.203 7.83216C13.0206 9.79186 11.9464 10.8595 9.98037 11.0352C8.01433 10.8595 6.94012 9.79186 6.75774 7.83216C6.72247 7.78524 6.67692 7.75266 6.62103 7.7345C5.99998 7.77665 5.78514 7.49673 5.9765 6.89466C6.25283 6.80631 6.49372 6.87791 6.69915 7.10951C6.94337 7.19978 7.1452 7.14119 7.30461 6.93373C7.35879 6.4801 7.37832 6.0244 7.36321 5.56655ZM13.2225 5.56655C13.3788 5.56655 13.535 5.56655 13.6913 5.56655C13.7041 5.77651 13.6911 5.98483 13.6522 6.19155C13.5088 6.22748 13.3721 6.27955 13.2421 6.3478C13.2225 6.08772 13.216 5.82729 13.2225 5.56655ZM8.49601 11.3477C9.47912 11.7631 10.4622 11.7631 11.4452 11.3477C11.4582 11.491 11.4713 11.6342 11.4843 11.7774C11.4961 11.8707 11.5287 11.9554 11.5819 12.0313C11.0656 12.5412 10.5318 13.0295 9.98037 13.4962C9.42897 13.0295 8.8951 12.5412 8.37882 12.0313C8.47964 11.8161 8.5187 11.5882 8.49601 11.3477ZM6.42572 12.3634C6.46478 12.3634 6.50384 12.3634 6.5429 12.3634C6.5429 13.392 6.5429 14.4206 6.5429 15.4493C6.29845 15.4372 6.05759 15.4502 5.82025 15.4883C5.80072 14.4858 5.7942 13.4832 5.80072 12.4805C6.01701 12.4576 6.22533 12.4186 6.42572 12.3634ZM13.4178 12.3634C13.6645 12.4066 13.9119 12.4457 14.16 12.4805C14.1535 12.8714 14.16 13.262 14.1795 13.6524C14.3301 13.8803 14.5124 13.9064 14.7264 13.7305C14.7676 13.4591 14.8002 13.1857 14.8241 12.9102C16.0593 13.1754 16.8471 13.9176 17.1873 15.1368C17.2508 16.4766 17.2638 17.8177 17.2264 19.1602C17.1463 19.2794 17.0356 19.351 16.8944 19.375C16.504 19.3945 16.1134 19.401 15.7225 19.3945C15.729 18.8866 15.7225 18.3788 15.703 17.8711C15.5937 17.4052 15.3724 17.0015 15.0389 16.6602C14.9281 16.4777 14.85 16.2824 14.8045 16.0743C14.8029 15.6148 14.7769 15.159 14.7264 14.7071C14.5298 14.5399 14.3475 14.5529 14.1795 14.7461C14.1665 14.9935 14.1535 15.2409 14.1405 15.4883C13.9031 15.4502 13.6623 15.4372 13.4178 15.4493C13.4178 14.4206 13.4178 13.392 13.4178 12.3634ZM7.83195 12.4415C8.34347 12.8682 8.83827 13.3174 9.31631 13.7891C8.78089 14.0093 8.33167 13.8986 7.96867 13.4571C7.78141 13.1411 7.57957 12.8351 7.36321 12.5391C7.52723 12.5185 7.68348 12.486 7.83195 12.4415ZM12.0897 12.4415C12.2557 12.4822 12.425 12.5148 12.5975 12.5391C12.3812 12.8351 12.1793 13.1411 11.9921 13.4571C11.6281 13.8944 11.1789 14.0051 10.6444 13.7891C11.1221 13.3308 11.6039 12.8816 12.0897 12.4415ZM5.13667 12.9102C5.18213 13.9583 5.18862 15.0129 5.1562 16.0743C5.11077 16.2824 5.03264 16.4777 4.92182 16.6602C4.62335 16.9575 4.41503 17.3091 4.29683 17.7149C4.24097 18.2724 4.22144 18.8324 4.23824 19.3945C3.79307 19.4105 3.35036 19.391 2.91013 19.3359C2.83851 19.2904 2.77992 19.2318 2.73435 19.1602C2.7083 17.8972 2.7083 16.6341 2.73435 15.3711C3.00527 14.0261 3.80604 13.2058 5.13667 12.9102ZM7.1679 13.418C7.35633 13.709 7.57766 13.9759 7.83195 14.2188C8.20929 14.4824 8.62597 14.5735 9.08194 14.4922C9.38873 14.4237 9.69471 14.3521 9.9999 14.2774C10.2906 14.3582 10.5836 14.4298 10.8788 14.4922C11.5252 14.598 12.0525 14.3962 12.4608 13.8868C12.565 13.7305 12.6691 13.5743 12.7733 13.418C12.7928 14.095 12.7994 14.772 12.7928 15.4493C10.9179 15.4493 9.04288 15.4493 7.1679 15.4493C7.1679 14.7722 7.1679 14.0951 7.1679 13.418ZM5.91791 16.0743C8.62624 16.0677 11.3345 16.0743 14.0428 16.0938C14.0987 16.112 14.1443 16.1445 14.1795 16.1914C14.3023 16.6846 14.5367 17.1142 14.8827 17.4805C14.9693 17.6278 15.0344 17.784 15.078 17.9492C15.0975 18.4308 15.104 18.9126 15.0975 19.3945C11.6861 19.3945 8.27464 19.3945 4.86323 19.3945C4.85671 18.9126 4.86323 18.4308 4.88276 17.9492C4.92632 17.784 4.99139 17.6278 5.07807 17.4805C5.41358 17.1221 5.64795 16.7054 5.78119 16.2305C5.80814 16.1582 5.85369 16.1061 5.91791 16.0743Z" fill="white"/>
<path opacity="0.868" fill-rule="evenodd" clip-rule="evenodd" d="M6.77727 16.5429C7.04934 16.5609 7.17305 16.7042 7.14836 16.9726C7.05325 17.1571 6.90348 17.2157 6.69915 17.1484C6.55415 17.0502 6.5086 16.9135 6.56243 16.7382C6.60567 16.6361 6.67727 16.571 6.77727 16.5429Z" fill="white"/>
<path opacity="0.867" fill-rule="evenodd" clip-rule="evenodd" d="M13.0272 16.5429C13.346 16.5428 13.4697 16.6991 13.3983 17.0116C13.3788 17.0832 13.3332 17.1288 13.2616 17.1484C12.9444 17.2216 12.7947 17.0979 12.8124 16.7773C12.8655 16.6787 12.9371 16.6006 13.0272 16.5429Z" fill="white"/>
</g>
<defs>
<clipPath id="clip0_0_133">
<rect width="19.2" height="19.2" fill="white" transform="scale(1.04166)"/>
</clipPath>
</defs>
</svg>
