<svg width="32" height="32" viewBox="0 0 32 32" fill="none" xmlns="http://www.w3.org/2000/svg">
<g clip-path="url(#clip0_7_16676)">
<path d="M25.3332 10.6667H23.9998V4H7.99984V10.6667H6.6665C4.45317 10.6667 2.6665 12.4533 2.6665 14.6667V22.6667H7.99984V28H23.9998V22.6667H29.3332V14.6667C29.3332 12.4533 27.5465 10.6667 25.3332 10.6667ZM10.6665 6.66667H21.3332V10.6667H10.6665V6.66667ZM21.3332 22.6667V25.3333H10.6665V20H21.3332V22.6667ZM23.9998 20V17.3333H7.99984V20H5.33317V14.6667C5.33317 13.9333 5.93317 13.3333 6.6665 13.3333H25.3332C26.0665 13.3333 26.6665 13.9333 26.6665 14.6667V20H23.9998Z" fill="#298F60"/>
<path d="M23.9998 16.6667C24.7362 16.6667 25.3332 16.0697 25.3332 15.3333C25.3332 14.597 24.7362 14 23.9998 14C23.2635 14 22.6665 14.597 22.6665 15.3333C22.6665 16.0697 23.2635 16.6667 23.9998 16.6667Z" fill="#298F60"/>
</g>
<defs>
<clipPath id="clip0_7_16676">
<rect width="32" height="32" fill="white"/>
</clipPath>
</defs>
</svg>
