<svg width="12" height="12" viewBox="0 0 12 12" fill="none" xmlns="http://www.w3.org/2000/svg">
<rect opacity="0.01" width="12" height="12" fill="#298F60"/>
<path fill-rule="evenodd" clip-rule="evenodd" d="M9.4844 0.974765L10.2724 1.76144C10.5726 2.06113 10.5726 2.52939 10.2912 2.82908L9.67203 3.44719C9.59697 3.52211 9.4844 3.52211 9.40934 3.44719L7.81449 1.8551C7.73944 1.78017 7.73944 1.66779 7.81449 1.59287L8.43367 0.974765C8.71511 0.675078 9.18419 0.675078 9.4844 0.974765ZM7.02644 2.37955C7.10149 2.30463 7.21407 2.30463 7.28912 2.37955L8.86522 3.99037C8.94027 4.06529 8.94027 4.17767 8.86522 4.25259L3.96807 9.14124H3.98684L1.84785 9.74062C1.64146 9.79681 1.45383 9.59077 1.51012 9.38474L2.1293 7.2682L7.02644 2.37955ZM1.875 9.75C1.66789 9.75 1.5 9.91789 1.5 10.125C1.5 10.3321 1.66789 10.5 1.875 10.5H10.125C10.3321 10.5 10.5 10.3321 10.5 10.125C10.5 9.91789 10.3321 9.75 10.125 9.75H1.875Z" fill="#EAF4EF"/>
</svg>
