<svg width="20" height="20" viewBox="0 0 20 20" fill="none" xmlns="http://www.w3.org/2000/svg">
<path fill-rule="evenodd" clip-rule="evenodd" d="M6.38783 18.3337H13.61C16.4353 18.3337 18.3327 16.3519 18.3327 13.4031V6.59759C18.3327 3.64875 16.4353 1.66699 13.6109 1.66699H6.38783C3.56343 1.66699 1.66602 3.64875 1.66602 6.59759V13.4031C1.66602 16.3519 3.56343 18.3337 6.38783 18.3337ZM7.08122 9.16695C5.93235 9.16695 4.99884 8.23218 4.99884 7.08362C4.99884 5.93506 5.93235 5.00028 7.08122 5.00028C8.22925 5.00028 9.1636 5.93506 9.1636 7.08362C9.1636 8.23218 8.22925 9.16695 7.08122 9.16695ZM16.5163 12.4451C16.7953 13.1606 16.6504 14.0206 16.352 14.7292C15.9984 15.572 15.3213 16.2101 14.4683 16.4888C14.0895 16.6126 13.6923 16.6668 13.2959 16.6668H6.27282C5.57394 16.6668 4.95551 16.4991 4.44853 16.1869C4.13094 15.9908 4.07479 15.5385 4.31027 15.2452C4.70412 14.755 5.09294 14.2631 5.48511 13.7669C6.23259 12.8175 6.73622 12.5423 7.29599 12.7839C7.52308 12.8837 7.75101 13.0333 7.98565 13.1916C8.61078 13.6164 9.47977 14.2003 10.6245 13.5665C11.4078 13.1278 11.8621 12.3752 12.2578 11.7199L12.2644 11.7089C12.2924 11.663 12.3202 11.617 12.3479 11.5711C12.4809 11.3511 12.6121 11.1341 12.7605 10.9341C12.9465 10.6838 13.6362 9.90122 14.5294 10.4585C15.0984 10.8094 15.5769 11.2841 16.0889 11.7923C16.2842 11.9867 16.4233 12.2077 16.5163 12.4451Z" fill="#9E9E9E"/>
</svg>
