<svg width="24" height="24" viewBox="0 0 24 24" fill="none" xmlns="http://www.w3.org/2000/svg">
<path opacity="0.98" fill-rule="evenodd" clip-rule="evenodd" d="M11.6953 3.72691C12.1575 3.62611 12.4935 3.78236 12.7031 4.19566C12.711 7.74265 12.7344 11.2895 12.7734 14.8363C13.6417 14.132 14.5167 13.4367 15.3984 12.7503C16.059 12.5414 16.4496 12.7758 16.5703 13.4535C16.5301 13.7214 16.4051 13.9402 16.1953 14.1097C14.9453 15.1097 13.6953 16.1097 12.4453 17.1097C12.1328 17.266 11.8203 17.266 11.5078 17.1097C10.2578 16.1097 9.00783 15.1097 7.75782 14.1097C7.54003 13.8608 7.46972 13.5717 7.54688 13.2425C7.76171 12.8187 8.09766 12.6702 8.55469 12.7972C9.44982 13.4501 10.3248 14.1297 11.1797 14.8363C11.2187 11.2895 11.2422 7.74265 11.25 4.19566C11.3448 3.98379 11.4932 3.82754 11.6953 3.72691Z" fill="black"/>
<path opacity="0.99" fill-rule="evenodd" clip-rule="evenodd" d="M3.44531 14.2269C3.9075 14.1261 4.24344 14.2824 4.45313 14.6957C4.46875 15.7894 4.48438 16.8832 4.5 17.9769C4.55469 18.4066 4.79686 18.6488 5.22656 18.7035C9.72656 18.7347 14.2266 18.7347 18.7266 18.7035C19.1563 18.6488 19.3984 18.4066 19.4531 17.9769C19.4687 16.8832 19.4844 15.7894 19.5 14.6957C19.7097 14.2746 20.0456 14.1262 20.5078 14.2503C20.7188 14.3363 20.8672 14.4847 20.9531 14.6957C20.9844 15.9457 20.9844 17.1956 20.9531 18.4457C20.7109 19.3753 20.125 19.9613 19.1953 20.2035C14.3828 20.2347 9.57033 20.2347 4.75781 20.2035C3.82813 19.9613 3.24219 19.3753 3 18.4457C2.96875 17.1956 2.96875 15.9457 3 14.6957C3.0948 14.4838 3.24324 14.3275 3.44531 14.2269Z" fill="black"/>
</svg>
