<svg width="28" height="28" viewBox="0 0 28 28" fill="none" xmlns="http://www.w3.org/2000/svg">
<path fill-rule="evenodd" clip-rule="evenodd" d="M14 0C6.26818 0 0 6.26818 0 14C0 21.7318 6.26818 28 14 28C21.7318 28 28 21.7318 28 14C28 6.26818 21.7318 0 14 0ZM18.718 11.0816C18.9498 10.8416 19.0781 10.5201 19.0752 10.1864C19.0723 9.85269 18.9385 9.53348 18.7025 9.2975C18.4665 9.06153 18.1473 8.92768 17.8136 8.92478C17.4799 8.92188 17.1584 9.05016 16.9184 9.282L14 12.2004L11.0816 9.282C10.9642 9.16044 10.8238 9.06348 10.6685 8.99678C10.5132 8.93008 10.3462 8.89497 10.1772 8.8935C10.0082 8.89203 9.84065 8.92423 9.68424 8.98823C9.52783 9.05222 9.38573 9.14672 9.26622 9.26622C9.14672 9.38573 9.05222 9.52783 8.98823 9.68424C8.92423 9.84065 8.89203 10.0082 8.8935 10.1772C8.89497 10.3462 8.93008 10.5132 8.99678 10.6685C9.06348 10.8238 9.16044 10.9642 9.282 11.0816L12.2004 14L9.282 16.9184C9.16044 17.0358 9.06348 17.1762 8.99678 17.3315C8.93008 17.4868 8.89497 17.6538 8.8935 17.8228C8.89203 17.9918 8.92423 18.1593 8.98823 18.3158C9.05222 18.4722 9.14672 18.6143 9.26622 18.7338C9.38573 18.8533 9.52783 18.9478 9.68424 19.0118C9.84065 19.0758 10.0082 19.108 10.1772 19.1065C10.3462 19.105 10.5132 19.0699 10.6685 19.0032C10.8238 18.9365 10.9642 18.8396 11.0816 18.718L14 15.7996L16.9184 18.718C17.1584 18.9498 17.4799 19.0781 17.8136 19.0752C18.1473 19.0723 18.4665 18.9385 18.7025 18.7025C18.9385 18.4665 19.0723 18.1473 19.0752 17.8136C19.0781 17.4799 18.9498 17.1584 18.718 16.9184L15.7996 14L18.718 11.0816Z" fill="#FF7262"/>
</svg>
