<svg width="24" height="24" viewBox="0 0 24 24" fill="none" xmlns="http://www.w3.org/2000/svg">
<path fill-rule="evenodd" clip-rule="evenodd" d="M16.8334 10.1523C16.9684 10.6878 16.6437 11.2314 16.1082 11.3663C15.5726 11.5013 15.0291 11.1766 14.8941 10.6411C14.5658 9.33878 13.5068 8.32965 12.1875 8.06731C11.6458 7.95959 11.2941 7.43315 11.4018 6.89148C11.5095 6.3498 12.0359 5.998 12.5776 6.10572C14.6552 6.51887 16.3166 8.10198 16.8334 10.1523ZM21.6895 20.2L18.6457 17.1684C19.9932 15.5172 20.7285 13.4541 20.7278 11.3263C20.7278 6.18947 16.532 2 11.3639 2C6.19578 2 2 6.17895 2 11.3263C2 16.4737 6.19578 20.6526 11.3639 20.6526C13.541 20.6526 15.5491 19.9053 17.145 18.6526L20.1993 21.6947C20.4107 21.9053 20.6749 22 20.9497 22C21.2245 22 21.4887 21.8947 21.7001 21.6947C22.1017 21.2842 22.1017 20.6105 21.6895 20.2ZM4.11374 11.3263C4.11374 7.34737 7.36891 4.10526 11.3639 4.10526C15.3589 4.10526 18.614 7.34737 18.614 11.3263C18.614 15.3053 15.3589 18.5474 11.3639 18.5474C7.36891 18.5474 4.11374 15.3053 4.11374 11.3263Z" fill="#787979"/>
</svg>
