<svg width="16" height="16" viewBox="0 0 16 16" fill="none" xmlns="http://www.w3.org/2000/svg">
<path fill-rule="evenodd" clip-rule="evenodd" d="M11.6273 4.1576C11.654 4.20422 11.7007 4.23751 11.7607 4.23751C13.3607 4.23751 14.6673 5.54273 14.6673 7.14095V11.0966C14.6673 12.6948 13.3607 14 11.7607 14H4.24065C2.63398 14 1.33398 12.6948 1.33398 11.0966V7.14095C1.33398 5.54273 2.63398 4.23751 4.24065 4.23751C4.29398 4.23751 4.34732 4.21088 4.36732 4.1576L4.40732 4.07769C4.4303 4.02931 4.45389 3.97963 4.47784 3.92918C4.64839 3.56995 4.83707 3.17253 4.95398 2.93896C5.26065 2.33962 5.78065 2.00666 6.42732 2H9.56732C10.214 2.00666 10.7407 2.33962 11.0473 2.93896C11.1523 3.14872 11.3123 3.4866 11.4665 3.81227C11.4983 3.87948 11.5299 3.94617 11.5607 4.0111L11.6273 4.1576ZM11.1404 6.71473C11.1404 7.0477 11.4071 7.31407 11.7404 7.31407C12.0738 7.31407 12.3471 7.0477 12.3471 6.71473C12.3471 6.38177 12.0738 6.10874 11.7404 6.10874C11.4071 6.10874 11.1404 6.38177 11.1404 6.71473ZM6.84713 7.74719C7.16046 7.43421 7.56712 7.26773 8.00046 7.26773C8.43379 7.26773 8.84046 7.43421 9.14712 7.74053C9.45379 8.04686 9.62046 8.45307 9.62046 8.88593C9.61379 9.77827 8.89379 10.5041 8.00046 10.5041C7.56712 10.5041 7.16046 10.3376 6.85379 10.0313C6.54712 9.725 6.38046 9.31878 6.38046 8.88593V8.87927C6.37379 8.45973 6.54046 8.05352 6.84713 7.74719ZM9.84705 10.7373C9.37372 11.2101 8.72039 11.5031 8.00038 11.5031C7.30038 11.5031 6.64705 11.2301 6.14705 10.7373C5.65372 10.2378 5.38038 9.58521 5.38038 8.88599C5.37372 8.19343 5.64705 7.54082 6.14038 7.04137C6.64038 6.54193 7.30038 6.2689 8.00038 6.2689C8.70039 6.2689 9.36038 6.54193 9.85372 7.03471C10.3471 7.53416 10.6204 8.19343 10.6204 8.88599C10.6137 9.61185 10.3204 10.2645 9.84705 10.7373Z" fill="white"/>
</svg>
