<svg width="17" height="20" viewBox="0 0 17 20" fill="none" xmlns="http://www.w3.org/2000/svg">
<path fill-rule="evenodd" clip-rule="evenodd" d="M0 8.31777C0 3.71789 3.69013 0 8.15372 0C12.6299 0 16.32 3.71789 16.32 8.31777C16.32 10.6357 15.5107 12.7876 14.1787 14.6116C12.7093 16.6235 10.8981 18.3765 8.85941 19.7524C8.39282 20.0704 7.97172 20.0944 7.45964 19.7524C5.40936 18.3765 3.59817 16.6235 2.14128 14.6116C0.808302 12.7876 0 10.6357 0 8.31777ZM5.46647 8.57676C5.46647 10.1177 6.6736 11.3297 8.15372 11.3297C9.63476 11.3297 10.8536 10.1177 10.8536 8.57676C10.8536 7.04781 9.63476 5.77684 8.15372 5.77684C6.6736 5.77684 5.46647 7.04781 5.46647 8.57676Z" fill="#FF4A4A"/>
</svg>
